<svg width="1372" height="1372" viewBox="0 0 1372 1372" fill="none" xmlns="http://www.w3.org/2000/svg">
<g clip-path="url(#clip0_411_780)">
<g clip-path="url(#clip1_411_780)">
<path d="M1045.41 1197.69C1042.37 1199.86 1038.9 1202.03 1035.86 1204.2C1032.39 1206.37 1029.35 1208.54 1025.88 1210.27C1022.84 1212.01 1020.23 1213.75 1017.2 1215.48C1016.76 1215.92 1016.33 1215.92 1015.89 1216.35C1005.91 1222.43 995.497 1228.07 985.081 1233.28C982.043 1235.01 978.571 1236.75 975.533 1238.05C975.533 1238.05 975.099 1238.48 974.665 1238.48C971.193 1240.22 967.721 1241.96 964.249 1243.69C957.305 1247.16 949.927 1250.2 942.983 1253.24C939.511 1254.98 935.605 1256.28 932.133 1257.58C928.661 1258.88 924.755 1260.62 921.283 1261.92C917.811 1263.22 913.905 1264.96 910.433 1266.26C910.433 1266.26 910.433 1266.26 909.999 1266.26C906.527 1267.56 902.621 1268.86 899.149 1270.17C891.337 1272.77 883.091 1275.37 875.279 1277.98C872.675 1278.85 869.637 1279.71 867.033 1280.58C858.787 1283.19 850.541 1285.36 842.295 1287.09C839.257 1287.96 836.219 1288.39 832.747 1289.26C824.934 1291 816.688 1292.73 808.876 1294.47C807.14 1294.9 805.838 1294.9 804.102 1295.34C801.498 1295.77 798.46 1296.21 795.856 1296.64C791.95 1297.07 788.478 1297.94 784.572 1298.38C782.836 1298.81 781.1 1298.81 779.364 1299.24C777.194 1299.68 774.59 1300.11 771.986 1300.11C765.042 1300.98 757.664 1301.85 750.72 1302.72C748.55 1303.15 745.946 1303.15 743.776 1303.58H743.342C740.304 1304.02 737.266 1304.02 734.228 1304.45C731.19 1304.89 728.152 1304.89 725.114 1304.89C723.378 1304.89 721.208 1305.32 719.472 1305.32C716 1305.32 712.962 1305.75 709.924 1305.75C705.584 1305.75 701.678 1306.19 697.338 1306.19C692.998 1306.19 689.092 1306.19 684.752 1306.19C681.714 1306.19 678.676 1306.19 675.638 1306.19C492.924 1303.58 328.004 1225.9 210.823 1102.64C210.823 1102.64 210.823 1102.21 210.389 1102.21C223.843 1075.73 273.753 1027.99 325.834 988.5C391.802 938.589 485.112 907.775 485.112 907.775C485.112 907.775 546.306 897.793 773.288 945.099C946.455 981.556 1020.23 1129.55 1045.41 1197.69Z" fill="#F7D3B5"/>
<path d="M821.462 1065.32C812.348 1110.02 753.324 1136.49 653.938 1096.57C531.984 1047.09 485.112 907.775 485.112 907.775C478.602 807.955 463.412 722.457 463.412 722.457C604.462 710.305 771.118 875.225 771.118 875.225L790.214 956.817C791.95 963.761 795.422 969.837 800.63 974.177C809.744 989.801 827.538 1036.67 821.462 1065.32Z" fill="#F7D3B5"/>
<path d="M800.63 974.611C717.736 970.271 656.542 958.119 591.008 840.505C646.56 889.547 712.094 908.209 781.1 916.889L790.214 956.817C791.951 964.195 795.422 970.271 800.63 974.611Z" fill="#EFBDA5"/>
<path d="M972.061 451.641C979.873 488.097 983.779 517.609 962.513 614.825C941.247 712.041 982.043 809.257 879.619 898.227C810.613 958.12 689.96 969.404 593.612 903.869C561.062 881.735 531.116 850.921 506.812 810.559C487.716 778.877 465.582 748.931 440.844 721.589C406.558 684.265 365.328 609.183 385.726 476.379C418.71 260.246 632.672 235.508 758.966 259.378C885.261 283.248 950.795 355.292 972.061 451.641Z" fill="#F7D3B5"/>
<path d="M556.722 621.335C556.722 621.335 543.268 556.235 479.904 564.047C425.22 570.991 406.124 702.059 530.248 738.515" fill="#F7D3B5"/>
<path d="M526.342 679.057C526.342 679.057 510.718 669.075 512.454 651.715C515.058 631.317 512.454 618.731 502.906 614.825C479.036 604.843 474.262 632.619 475.13 636.091" stroke="#423232" stroke-width="13.4786" stroke-miterlimit="10" stroke-linecap="round" stroke-linejoin="round"/>
<path d="M857.485 721.155C857.485 721.155 873.977 722.023 889.601 703.361C898.281 692.945 905.659 679.925 900.885 676.019C896.111 671.679 817.556 683.831 812.348 694.247C807.14 704.663 837.52 721.155 857.485 721.155Z" fill="#EFBDA5"/>
<path d="M870.505 575.33C870.505 575.33 871.373 616.56 897.847 662.564C909.565 682.963 891.771 716.381 853.145 722.023" stroke="#423232" stroke-width="13.4786" stroke-miterlimit="10" stroke-linecap="round" stroke-linejoin="round"/>
<path d="M1089.26 1116.84C1027.63 1037.42 932.149 1004.43 879.635 984.901C875.295 963.201 867.049 939.331 854.029 916.329C834.065 928.481 811.063 937.595 787.193 942.369L790.665 956.691C792.401 963.635 801.081 995.751 787.627 1036.98C776.343 1071.7 730.773 1087.33 653.521 1052.17C502.922 984.033 485.562 907.215 485.562 907.215C482.958 865.551 478.618 826.491 474.712 794.809C427.84 805.225 373.59 826.491 344.078 871.193C307.622 925.877 294.168 981.429 297.64 1025.7C234.276 1066.06 136.192 1127.25 104.076 1236.62C62.4115 1378.97 69.3555 1466.21 69.3555 1466.21H1190.81C1189.51 1466.64 1173.02 1224.9 1089.26 1116.84Z" fill="#6060D8"/>
<path d="M418.726 974.486C418.726 974.486 445.2 1077.34 561.078 1148.52" stroke="#423232" stroke-width="13.4786" stroke-miterlimit="10" stroke-linecap="round" stroke-linejoin="round"/>
<path d="M879.201 984.902C879.201 984.902 910.015 1118.14 842.745 1179.33" stroke="#423232" stroke-width="13.4786" stroke-miterlimit="10" stroke-linecap="round" stroke-linejoin="round"/>
<path d="M670.013 1158.94C670.013 1158.94 647.445 1224.9 653.521 1270.47" stroke="#423232" stroke-width="13.4786" stroke-miterlimit="10" stroke-linecap="round" stroke-linejoin="round"/>
<path d="M808.46 1155.03C808.46 1155.03 825.386 1191.92 837.538 1250.51" stroke="#423232" stroke-width="13.4786" stroke-miterlimit="10" stroke-linecap="round" stroke-linejoin="round"/>
<path d="M296.772 1026.13C296.772 1026.13 332.36 1171.09 544.152 1213.62" stroke="#423232" stroke-width="13.4786" stroke-miterlimit="10" stroke-linecap="round" stroke-linejoin="round"/>
<path d="M657.427 1280.46L638.331 1278.72C631.387 1277.85 626.179 1271.34 627.481 1264.4L633.991 1231.85C635.727 1222.73 644.407 1216.22 653.521 1217.53C662.635 1218.39 670.013 1226.21 670.013 1235.75L670.447 1269.17C670.447 1275.68 664.371 1281.32 657.427 1280.46Z" fill="white"/>
<path d="M856.633 1260.49L838.405 1267C831.461 1269.61 824.083 1265.27 822.781 1258.32L814.969 1226.21C812.799 1217.09 817.573 1207.98 826.687 1204.51C835.367 1201.47 845.349 1205.37 849.255 1213.62L863.577 1243.57C866.615 1250.08 863.577 1257.89 856.633 1260.49Z" fill="white"/>
<path d="M282.016 1466.64C282.016 1466.64 278.11 1369.86 265.09 1343.82" stroke="#544D4D" stroke-width="13.4786" stroke-miterlimit="10" stroke-linecap="round" stroke-linejoin="round"/>
<path d="M1048.03 1250.51C1048.03 1250.51 1072.33 1386.79 1062.78 1466.64" stroke="#544D4D" stroke-width="13.4786" stroke-miterlimit="10" stroke-linecap="round" stroke-linejoin="round"/>
<path d="M835.061 772.504C835.51 779.692 830.119 792.272 820.234 801.258C769.465 770.257 746.551 786.431 746.551 786.431C728.58 759.025 732.624 721.734 776.204 750.039C806.756 769.359 825.177 772.504 835.061 772.504Z" fill="#423232"/>
<path d="M820.235 801.258C809.452 810.693 793.278 816.533 771.263 807.548C760.929 803.504 752.842 795.417 746.552 786.431C746.552 786.431 769.465 770.257 820.235 801.258Z" fill="#FE9DAB"/>
<path d="M843.598 770.707C843.598 770.707 824.728 781.04 776.205 750.039C718.247 712.749 729.928 790.925 770.813 807.548C813.495 825.07 835.511 786.881 835.061 772.504" stroke="#423232" stroke-width="13.4786" stroke-miterlimit="10" stroke-linecap="round" stroke-linejoin="round"/>
<path d="M746.552 786.431C746.552 786.431 769.465 770.257 820.235 801.258" stroke="#423232" stroke-width="13.4786" stroke-miterlimit="10" stroke-linecap="round" stroke-linejoin="round"/>
<path d="M1005.55 346.874C974.737 458.412 885.332 439.75 801.57 409.37C690.032 368.574 591.948 401.558 591.514 502.246C590.646 649.807 553.756 605.105 549.85 599.463C540.302 581.234 519.904 558.666 481.278 563.44C430.5 569.95 410.536 681.923 505.148 727.927C521.64 811.689 476.504 803.877 476.504 803.877C461.314 742.249 333.717 611.181 333.283 524.814C333.283 408.502 391.874 375.518 391.874 375.518C393.61 294.36 478.24 204.956 620.592 207.994C762.944 210.598 850.178 206.692 877.954 173.274C905.73 138.988 1036.36 235.336 1005.55 346.874Z" fill="#423232"/>
<path d="M1009.02 480.98C1004.68 509.19 992.531 530.89 975.605 546.948C982.115 499.642 978.643 477.074 973.001 450.6C960.849 396.35 934.809 349.478 891.409 314.758C913.109 313.022 935.243 317.796 955.207 330.382C955.207 329.948 1026.82 359.026 1009.02 480.98Z" fill="#423232"/>
<path d="M507.738 635.618C507.738 635.618 473.018 630.41 475.622 679.018C476.924 703.756 476.924 717.21 476.49 724.154C476.056 728.928 479.094 733.268 483.434 735.004C488.642 737.174 494.284 735.004 496.888 729.796C500.794 722.852 505.134 713.304 505.134 705.492C505.134 692.472 519.022 680.754 519.022 680.754C519.022 680.754 506.436 669.904 507.738 635.618Z" fill="white"/>
<path d="M612.766 1472.37C609.294 1468.47 473.018 1235.41 493.416 1147.74C507.304 1087.41 489.076 1017.97 473.018 956.778C466.508 931.606 460.432 908.17 456.96 887.338C450.884 851.316 455.224 817.03 469.98 785.347C486.038 749.759 483.434 718.945 483.434 718.511L492.114 717.643C492.114 718.945 494.718 751.495 477.792 788.82C463.904 818.766 459.998 851.75 465.64 886.036C469.112 906.434 475.188 929.87 481.698 955.042C498.19 1017.1 516.418 1087.85 502.096 1150.34C483 1233.67 618.842 1466.73 619.71 1467.6L612.766 1472.37Z" fill="white"/>
<path d="M476.925 704.189C477.359 713.737 476.925 720.247 476.925 724.153C476.491 728.927 479.529 733.267 483.869 735.003C489.077 737.173 494.719 735.003 497.323 729.795C501.229 722.851 505.569 713.303 505.569 705.491C505.569 705.057 505.569 704.189 505.569 703.755C496.455 707.227 486.039 709.831 476.925 704.189Z" fill="#E5E5E5"/>
<path d="M885.319 992.8C882.281 1012.76 881.847 1044.45 880.979 1081.34C879.677 1152.51 837.579 1429.84 817.181 1473.67L809.369 1470.2C828.899 1427.67 870.997 1151.64 872.299 1081.34C873.167 1044.45 873.601 1012.33 876.639 991.498C883.149 947.664 878.375 914.68 875.771 900.792C877.073 899.49 878.375 898.622 879.677 897.32C880.979 896.452 881.847 895.15 883.149 894.282C885.753 905.566 893.131 941.588 885.319 992.8Z" fill="white"/>
<path d="M735.389 548.986C735.389 549.42 735.389 549.854 735.389 549.854L734.955 562.006C734.521 572.422 725.841 580.234 715.425 579.8C705.009 579.366 697.197 570.252 698.065 560.27L698.499 548.118C698.499 545.948 699.367 543.344 700.235 541.608L734.955 543.344C734.955 545.08 735.389 546.816 735.389 548.986Z" fill="#423232"/>
<path d="M916.799 558.534L916.365 569.818C915.931 579.366 907.685 586.744 898.137 586.31C888.589 585.876 881.211 577.63 881.645 568.082L882.079 556.798C882.079 554.628 882.513 552.458 883.381 550.722L915.931 552.024C916.799 554.194 916.799 556.364 916.799 558.534Z" fill="#423232"/>
<path d="M778.787 489.527C788.335 490.829 795.713 480.847 792.241 471.299C790.505 466.091 787.467 461.317 782.693 458.279C767.937 449.165 712.819 448.297 683.741 469.129C658.135 488.225 735.387 483.451 778.787 489.527Z" fill="#423232"/>
<path d="M899.004 494.302C891.192 494.302 886.418 484.32 890.324 476.074C892.494 471.734 895.532 467.828 899.872 465.658C913.326 459.148 949.348 463.054 965.407 485.188C979.729 504.718 935.026 493.868 899.004 494.302Z" fill="#423232"/>
<path d="M763.597 544.212L734.519 542.91L699.799 541.608L691.987 541.174" stroke="#423232" stroke-width="13.4786" stroke-miterlimit="10" stroke-linecap="round" stroke-linejoin="round"/>
<path d="M935.028 552.892L915.932 552.024L883.382 550.722H882.079" stroke="#423232" stroke-width="13.4786" stroke-miterlimit="10" stroke-linecap="round" stroke-linejoin="round"/>
</g>
</g>
<defs>
<clipPath id="clip0_411_780">
<rect width="1372" height="1372" fill="white"/>
</clipPath>
<clipPath id="clip1_411_780">
<rect width="1302" height="1300" fill="white" transform="translate(35 135)"/>
</clipPath>
</defs>
</svg>
